<?xml version="1.0" standalone="no"?><!DOCTYPE svg PUBLIC "-//W3C//DTD SVG 1.1//EN" "http://www.w3.org/Graphics/SVG/1.1/DTD/svg11.dtd"><svg class="icon" width="200px" height="200.00px" viewBox="0 0 1024 1024" version="1.1" xmlns="http://www.w3.org/2000/svg"><path d="M734.8 839c-108.9 0-182.7-19.6-254.1-38.6-58-15.4-118.1-31.4-197.3-36.6-96.7-6.4-148.2 4.2-178.6 12.8-12.5 3.5-25.7-0.9-33.6-11.2-7.9-10.4-8.6-24.3-1.8-35.4l79-129.8c1.1-40.7 7.4-92.7 17-139.8 9.2-45 26.2-109.5 55.1-160.8 25.9-45.8 64-77 116.6-95.3 43-15 94.6-21.7 167.4-21.7 73.1 0 124.4 6.3 166.3 20.5 52 17.6 89.8 48 115.7 93 29.8 51.7 47.3 116.9 56.7 162.5 9.8 47.7 16.3 100.4 17.5 141.7l92.7 152.1c6.3 10.3 7.8 22.9 4 34.4-3.7 11.5-12.2 20.8-23.3 25.4-53 22.1-137.6 26.8-199.3 26.8z" fill="#FFD24D" /><path d="M499 838.3c-231.7-2.5-340.2-41.3-409-61.1l0.1-17.7s85.9-9.4 212.9 1.6c115.9 10 299.1 48 412 63.4 3.5 0.5 5.9 14.3 1.9 14.3-15.2 0-201.4-0.3-217.9-0.5z" fill="#FC9C0A" /><path d="M734.8 839c-108.9 0-182.7-19.6-254.1-38.6-58-15.4-118.1-31.4-197.3-36.6-96.7-6.4-148.2 4.2-178.6 12.8-12.5 3.5-25.7-0.9-33.6-11.2-7.9-10.4-8.6-24.3-1.8-35.4l79-129.8c1.1-40.7 7.4-92.7 17-139.8 9.2-45 26.2-109.5 55.1-160.8 25.9-45.8 64-77 116.6-95.3 43-15 94.6-21.7 167.4-21.7 73.1 0 124.4 6.3 166.3 20.5 52 17.6 89.8 48 115.7 93 29.8 51.7 47.3 116.9 56.7 162.5 9.8 47.7 16.3 100.4 17.5 141.7l92.7 152.1c6.3 10.3 7.8 22.9 4 34.4-3.7 11.5-12.2 20.8-23.3 25.4-53 22.1-137.6 26.8-199.3 26.8z m-507.6-99.9c17.3 0 36.4 0.6 57.6 2 81.5 5.4 142.6 21.7 201.7 37.4 73.2 19.5 142.3 37.8 248.2 37.8 107.9 0 163.2-13.7 190.5-25.2 5.1-2.1 8.8-6.2 10.5-11.5 1.7-5.2 1-10.9-1.8-15.6l-94.3-154.7c-1-1.7-1.6-3.7-1.7-5.7-1.5-72.1-21.7-210.6-71.2-296.4-48.7-84.8-140-102.1-262.2-102.1-69.2 0-120 6.5-159.9 20.4-47.2 16.5-81.3 44.3-104.3 85.1-48.1 85.2-67.8 221.9-69.3 293 0 2-0.6 4-1.6 5.7L88.8 741.7c-2.9 4.8-0.3 8.8 0.5 9.9 0.8 1.1 4 4.6 9.3 3.1 25.2-7.1 64.2-15.6 128.6-15.6z" fill="#FC9C0A" /><path d="M857.4 583c-0.3 0.1-22.7 5.2-88.9 9.8l1.9 28.3c69.3-4.8 89.8-10.2 90.9-10.4l-3.9-27.7zM198.6 617.1C272 624.5 375 628.2 505 628.2c32.9 0 66.5-0.2 94.7-0.7l-0.4-28.3c-28.1 0.4-61.5 0.7-94.2 0.7-129 0-231.1-3.7-303.5-11l-3 28.2z" fill="#FC9C0A" /><path d="M684.8 555.4c-29.7 0-53.9 24.2-53.9 53.9s24.2 53.9 53.9 53.9 53.9-24.2 53.9-53.9c0-29.8-24.2-53.9-53.9-53.9z" fill="#FA464D" /><path d="M670.2 606h-17c0-15.7 12.8-28.5 28.5-28.5v17c-6.4 0-11.5 5.2-11.5 11.5zM227.2 716.4c-33 0-62.3 2.1-89.3 6.4l2.9 22.6c25.9-4.2 54.4-6.3 86.4-6.3 18.1 0 37.4 0.7 57.5 2 81.3 5.4 142.4 21.6 201.4 37.3l5.8-21.9c-60.1-16-122.2-32.5-205.7-38-20.5-1.4-40.4-2.1-59-2.1z" fill="#FFFFFF" /></svg>