<?xml version="1.0" standalone="no"?><!DOCTYPE svg PUBLIC "-//W3C//DTD SVG 1.1//EN" "http://www.w3.org/Graphics/SVG/1.1/DTD/svg11.dtd"><svg class="icon" width="200px" height="200.00px" viewBox="0 0 1024 1024" version="1.1" xmlns="http://www.w3.org/2000/svg"><path d="M819 515c-0.2-0.8-0.1-1.6 0.4-2.2l6.3-9c4.2-6.1 5.8-13.7 4.4-21-3.6-18.1-15.4-70.1-47.4-161.4-13-37.3-25.7-71.2-37.6-100.8-15.7-39.1-38.7-74-68.4-103.7-0.2-0.2-0.4-0.4-0.6-0.5l-36.3-31.7C624.5 71.4 605 64 584.9 64H439.5c-20.1 0-39.6 7.3-54.9 20.7l-36.3 31.6c-0.2 0.2-0.4 0.3-0.6 0.5-29.7 29.7-52.7 64.6-68.4 103.7-12 29.8-24.6 63.7-37.6 100.9-31.7 90.5-43.7 143-47.4 161.3-1.4 7.3 0.1 14.9 4.4 21l6.1 8.8c0.5 0.7 0.6 1.5 0.4 2.3l-5.1 17.2c-2.3 7.6-1.4 15.7 2.5 22.6s10.3 11.9 17.9 14l40.1 10.9c13.3 3.6 27.2-3 32.9-15.5l10.3-22.8 19.2-2.7c-7.7 28.5-68.6 336.2-76.7 380.9-1.4 7.6 0.6 15.5 5.3 21.6 4.7 6.1 11.8 10 19.5 10.5 34.2 2.6 110.9 7 239.2 7 129.1 0 209.1-4.4 245.3-7.1 7.8-0.6 14.9-4.4 19.7-10.6 4.7-6.2 6.6-14.1 5.2-21.7-8.3-44.5-72-352.4-80.1-380.9l20.7 2.8 10 23.4c5.3 12.4 18.7 19.3 31.9 16.3l39.8-9c7.9-1.8 14.5-6.6 18.7-13.5s5.3-15 3.2-22.8L819 515z" fill="#FA464D" /><path d="M725 639.2c-31.5-150.5-60.6-203.4-61.7-205.6l-20.2 10.2c8.9 17.8 35.1 82.5 59.7 200 24.9 119.1 47 235.3 55.3 279.7 0.3 1.8-0.4 3.1-0.9 3.7-0.5 0.6-1.5 1.7-3.4 1.8-35.9 2.6-115.3 7-243.6 7-127.6 0-203.5-4.4-237.4-7-1.8-0.1-2.9-1.2-3.3-1.8-0.5-0.6-1.2-1.9-0.9-3.7 8.1-44.7 29.4-161.4 53.2-279.9 23.5-116.8 49.2-181.9 58-200l-20.4-10c-1.1 2.2-29.8 55.9-59.9 205.5-23.8 118.7-45.2 235.6-53.3 280.4-1.4 7.6 0.6 15.5 5.3 21.6 4.7 6.1 11.8 10 19.5 10.5 34.2 2.6 110.9 7 239.2 7 129.1 0 209.1-4.4 245.3-7.1 7.8-0.6 14.9-4.4 19.7-10.6 4.7-6.2 6.6-14.1 5.2-21.7-8.3-44.3-30.4-160.7-55.4-280z" fill="#A8104D" /><path d="M819 515c-0.2-0.8-0.1-1.6 0.4-2.2l6.3-9c4.2-6.1 5.8-13.7 4.4-21-3.6-18.1-15.4-70.1-47.4-161.4-13-37.3-25.7-71.2-37.6-100.8-15.7-39.1-38.7-74-68.4-103.7-0.2-0.2-0.4-0.4-0.6-0.5l-36.3-31.7C624.5 71.4 605 64 584.9 64H439.5c-20.1 0-39.6 7.3-54.9 20.7l-36.3 31.6c-0.2 0.2-0.4 0.3-0.6 0.5-29.7 29.7-52.7 64.6-68.4 103.7-12 29.8-24.6 63.7-37.6 100.9-31.7 90.5-43.7 143-47.4 161.3-1.5 7.3 0.1 14.9 4.4 21l6.1 8.8c0.5 0.7 0.6 1.5 0.4 2.3l-5.1 17.2c-2.3 7.6-1.4 15.7 2.5 22.6 3.9 7 10.2 12 17.9 14l63.1 17.1 5.9-21.9-63.1-17.1c-1.8-0.5-3.2-1.6-4.1-3.2-0.9-1.6-1.1-3.4-0.6-5.1l5.1-17.2c2.2-7.4 0.9-15.4-3.5-21.7l-6.1-8.8c-0.7-1-1-2.3-0.8-3.6 3.6-17.9 15.3-69.1 46.5-158.3 12.9-36.8 25.4-70.4 37.2-99.9 14.5-36.1 35.7-68.4 63.1-95.8l36-31.4c11.2-9.7 25.4-15.1 40-15.1h145.4c14.7 0 28.9 5.4 40 15.1l36 31.4c27.4 27.5 48.6 59.7 63.1 95.8 11.8 29.3 24.3 62.9 37.2 99.9 31.5 89.9 43 140.7 46.5 158.3 0.2 1.2 0 2.5-0.8 3.6l-6.3 9c-4.3 6.2-5.7 13.9-3.7 21.2l5.6 20.6c0.7 2.4-0.2 4.3-0.7 5.2s-1.8 2.5-4.2 3.1l-62.5 14.1 5 22.1 62.5-14.1c7.9-1.8 14.5-6.6 18.7-13.5s5.3-15 3.2-22.8L819 515z" fill="#A8104D" /><path d="M377.1 194l-10.5-4.2c-0.5 1.3-12.1 31.6-12.1 103.6 0 53.8 14 95.9 22.4 116.1l21-8.7c-6.2-15.1-20.7-55.7-20.7-107.5 0-53.5 6.9-85.7 10.6-95.3l-10.7-4zM645.1 409.5c8.4-20.3 22.4-62.3 22.4-116.1 0-72-11.7-102.3-12.2-103.6l-21.1 8.3c3.7 9.6 10.6 41.8 10.6 95.3 0 51.8-14.5 92.4-20.7 107.4l21 8.7z" fill="#A8104D" /><path d="M506.2 179.5c-34.1-0.3-67.2-7.5-98.4-21.5l8.1-18.1c28.7 12.8 59.1 19.5 90.4 19.7l-0.1 19.9z" fill="#FFFFFF" /><path d="M604.8 140.7l-9.1-20.8c-27.2 11.9-56 17.9-85.5 17.9s-58.2-6-85.5-17.9l-9.1 20.8c30.1 13.1 61.9 19.8 94.5 19.8s64.6-6.7 94.7-19.8zM241.648 510.543l6.755-62.535 19.685 2.127-6.755 62.535zM270.835 513.587l21.756-47.669 18.012 8.221-21.756 47.669zM754.862 450.032l19.685-2.125 6.75 62.535-19.686 2.125zM712.531 474.187l18.014-8.219 21.751 47.674-18.014 8.219z" fill="#A8104D" /><path d="M650.4 396.9s-31.5 3.4-147.2 3.4c-78.4 0-131-3-131-3l-3.1 22.4s53.6 3.3 134.1 3.3c116 0 149.9-3.6 149.9-3.6l-2.7-22.5zM577.8 443.8v200h22.7V519.9l23 75.3 21.7-6.6L600 440.5z" fill="#5A1799" /></svg>