<?xml version="1.0" standalone="no"?><!DOCTYPE svg PUBLIC "-//W3C//DTD SVG 1.1//EN" "http://www.w3.org/Graphics/SVG/1.1/DTD/svg11.dtd"><svg class="icon" width="200px" height="200.00px" viewBox="0 0 1024 1024" version="1.1" xmlns="http://www.w3.org/2000/svg"><path d="M957.51 697.56c-7.34-40.42-21.55-107.33-47.56-196.56-32.41-111.17-62.44-194.93-73.85-225.78-4.35-11.77-12.28-21.59-22.92-28.38l-131.03-83.67c-4.72-7.88-20.67-34.53-32.19-54.39-10.22-17.62-29.25-28.56-49.65-28.56H420.66c-21.42 0-40.91 11.78-50.85 30.73-10.21 19.47-23.66 44.58-27.98 52.64l-130.92 83.39c-10.54 6.72-18.44 16.4-22.83 28.02-10.35 27.37-38.27 104.24-73.92 226.52-28.33 97.19-41.81 160.91-48.13 197.25-3.84 22.1-0.43 44.43 9.86 64.58l10.12 19.8a57.303 57.303 0 0 0 22.85 23.84l2.36 41.24c0.75 13.15 10.27 24.26 23.16 27.01l71.79 15.35c13.07 2.79 26.3-4.04 31.58-16.32l21.17-49.23s12.79 39.89 18.29 46.15c2.18 4 3.42 19.93 4.09 28.54 0.29 3.67 0.56 7.13 0.88 10.36 1.2 12.1 10.37 22.07 22.29 24.24 24.01 4.36 82.13 11.68 201.67 11.68 125.88 0 191.12-8.33 213.33-11.92 12.25-1.98 21.65-11.99 22.85-24.35 0.3-3.13 0.56-6.47 0.84-10 0.67-8.61 1.91-24.55 4.09-28.55 5.49-6.24 19.52-46.15 19.52-46.15l18.77 48.17c4.99 12.79 18.51 20.09 31.94 17.22l70.99-15.17c12.88-2.75 22.4-13.86 23.16-27.01l2.35-41.09a57.477 57.477 0 0 0 22.87-23.23l10.18-19.11c10.91-20.52 14.63-44.4 10.48-67.26z" fill="#DDE6F2" /><path d="M224.66 447.22c-8.3 132.26-7.82 267.08-7.66 311.5 0.02 5.71 0.04 9.79 0.02 11.94-0.05 3.86-0.15 11.88 27.35 54.13 12.45 19.12 27.32 40.13 32.83 46.39 2.18 4 3.42 19.93 4.09 28.54 0.29 3.67 0.56 7.13 0.88 10.36 1.2 12.1 10.37 22.07 22.29 24.24 24.01 4.36 82.13 11.68 201.67 11.68 125.88 0 191.12-8.33 213.33-11.92 12.25-1.98 21.65-11.99 22.85-24.35 0.3-3.13 0.56-6.47 0.84-10 0.67-8.61 1.91-24.55 4.09-28.55 5.49-6.24 20.37-27.26 32.83-46.39 27.5-42.24 27.4-50.27 27.35-54.04-0.16-29.57-2.86-179.68-12.23-323.39 0 0 28.63-193.73 17.99-200.52l-131.03-83.67c-4.72-7.88-20.67-34.53-32.19-54.39-10.22-17.62-29.25-28.56-49.65-28.56H420.66c-21.42 0-40.91 11.78-50.85 30.73-10.21 19.47-23.66 44.58-27.98 52.64l-130.92 83.39c-10.54 6.72 13.75 200.24 13.75 200.24z" fill="#1D88F2" /><path d="M460.38 329.55c-9.39 0-17 7.61-17 17s7.61 17 17 17 17-7.61 17-17-7.61-17-17-17zM460.38 467.51c-9.39 0-17 7.61-17 17s7.61 17 17 17 17-7.61 17-17-7.61-17-17-17z" fill="#FFFFFF" /><path d="M460.38 622.47m-17 0a17 17 0 1 0 34 0 17 17 0 1 0-34 0Z" fill="#FFFFFF" /><path d="M460.38 763.18m-17 0a17 17 0 1 0 34 0 17 17 0 1 0-34 0Z" fill="#FFFFFF" /><path d="M502.85 874.82c-54.78 0-130.27-1.75-186.39-9.87l2.84-19.64c119.11 17.23 341.33 7.53 382.26 0.64l3.29 19.57c-25.56 4.3-95.87 8.11-167.17 9.07-10.08 0.13-21.88 0.23-34.83 0.23zM605.62 123.45c-9.36 2.29-33.99 10.21-60.37 34.34-15.62 14.29-27.15 29.99-34.87 42.37-7.74-12.4-19.28-28.14-34.87-42.39-26.28-24.02-50.96-32.01-60.35-34.32l-5.44 22.02c6.01 1.48 27.42 7.97 50.48 29.04 27.58 25.21 41.26 56.64 41.39 56.94l17.57 0.01c0.13-0.31 13.51-31.43 41.39-56.94 23.14-21.17 44.46-27.58 50.44-29.05l-5.37-22.02z" fill="#4531AD" /><path d="M957.51 697.56c-7.34-40.42-21.55-107.33-47.56-196.56-32.41-111.17-62.44-194.93-73.85-225.78-4.35-11.77-12.28-21.59-22.92-28.38l-131.03-83.67c-4.72-7.88-20.67-34.53-32.19-54.39-10.22-17.62-29.25-28.56-49.65-28.56H420.66c-21.42 0-40.91 11.78-50.85 30.73-10.21 19.47-23.66 44.58-27.98 52.64l-130.92 83.39c-10.54 6.72-18.44 16.4-22.83 28.02-10.35 27.37-38.27 104.24-73.92 226.52-28.33 97.19-41.81 160.91-48.13 197.25-3.84 22.1-0.43 44.43 9.86 64.58l10.12 19.8a57.303 57.303 0 0 0 22.85 23.84l2.36 41.24c0.75 13.15 10.27 24.26 23.16 27.01l94.28 20.15 4.74-22.18-94.28-20.15a6.68 6.68 0 0 1-5.26-6.13l-1.84-32.12 82.18 19.41 5.21-22.07-90.24-21.32a34.715 34.715 0 0 1-22.97-18.02l-10.12-19.8c-8.04-15.74-10.71-33.16-7.71-50.38 6.22-35.77 19.52-98.6 47.56-194.79 26.64-91.39 48.9-157.15 62.67-195.68l26.06 135.06c-8.3 132.26-7.82 267.08-7.66 311.5 0.02 5.71 0.04 9.79 0.02 11.94-0.05 3.86-0.15 11.88 27.35 54.13 12.45 19.12 27.32 40.13 32.83 46.39 2.18 4 3.42 19.93 4.09 28.54 0.29 3.67 0.56 7.13 0.88 10.36 1.2 12.1 10.37 22.07 22.29 24.24 24.01 4.36 82.13 11.68 201.67 11.68 125.88 0 191.12-8.33 213.33-11.92 12.25-1.98 21.65-11.99 22.85-24.35 0.3-3.13 0.56-6.47 0.84-10 0.67-8.61 1.91-24.55 4.09-28.55 5.49-6.24 20.37-27.26 32.83-46.39 27.5-42.24 27.4-50.27 27.35-54.04-0.16-29.57-2.86-179.68-12.23-323.39l29.77-136.31c14.58 41.01 38.18 110.39 63.22 196.29 25.74 88.3 39.78 154.38 47.02 194.27 3.24 17.86 0.33 36.51-8.19 52.52l-10.18 19.11a34.79 34.79 0 0 1-22.69 17.49l-90.48 21.37 5.21 22.07 81.96-19.36-1.84 32.12a6.66 6.66 0 0 1-5.26 6.13l-94.28 20.15 4.74 22.18 94.28-20.15c12.88-2.75 22.4-13.86 23.16-27.01l2.35-41.09a57.477 57.477 0 0 0 22.87-23.23l10.18-19.11c10.91-20.5 14.63-44.38 10.48-67.24zM389.89 121.48c6.02-11.47 17.81-18.59 30.77-18.59H600.3c12.35 0 23.86 6.62 30.04 17.27 11.83 20.39 28.26 47.83 32.63 55.12-10.38 10.45-33.27 29.68-69.95 51.61-32.04 19.16-56.07 30.34-70.59 36.34-8.89 3.68-18.62 3.63-27.4-0.14-13.92-5.98-36.93-17.09-67.51-36.1-35.04-21.78-56.67-40.81-66.48-51.24 3.17-5.92 17.86-33.33 28.85-54.27z m382.8 322.6c-0.23 1.04-0.31 2.1-0.24 3.16 7.43 113.23 10.48 225.82 11.64 283.7l-60.58-124.01-20.38 9.95 78.57 160.84c-3.43 6.92-10.1 18.6-21.89 36.61-13.4 20.45-26.32 38.22-29.67 41.95-6.49 7.2-7.96 20.55-9.6 41.68-0.27 3.42-0.52 6.66-0.8 9.57a4.682 4.682 0 0 1-3.89 4.16c-21.67 3.5-85.48 11.63-209.71 11.63-122.16 0-178.89-7.91-197.61-11.31-2.02-0.37-3.57-2.08-3.78-4.16-0.3-2.99-0.56-6.34-0.83-9.89-1.65-21.13-3.12-34.48-9.59-41.67-3.36-3.74-16.28-21.51-29.68-41.96-11.84-18.07-18.51-29.77-21.93-36.68l78.54-160.77-20.38-9.95-61.27 125.37c-0.04-59.22 0.69-173.27 7.77-285.09 0.06-0.96 0-1.92-0.18-2.86l-32.86-170.3c2.41-3.09 5.34-5.79 8.75-7.96l120.01-76.43c8.68 9.48 30.3 30.38 72.45 56.58 31.78 19.76 55.9 31.39 70.54 37.68 3.98 1.71 8.07 2.93 12.22 3.71v587.23h22.68V287.32c3.42-0.74 6.81-1.78 10.12-3.15 15.22-6.29 40.33-17.97 73.56-37.83 44.69-26.72 67.51-47.95 76.26-57.06l120.06 76.67c3.46 2.21 6.43 4.96 8.85 8.11l-37.15 170.02z" fill="#4531AD" /></svg>