<?xml version="1.0" standalone="no"?><!DOCTYPE svg PUBLIC "-//W3C//DTD SVG 1.1//EN" "http://www.w3.org/Graphics/SVG/1.1/DTD/svg11.dtd"><svg class="icon" width="200px" height="200.00px" viewBox="0 0 1024 1024" version="1.1" xmlns="http://www.w3.org/2000/svg"><path d="M291.5 160s-21 93.6-51.6 340.4c-29.6 239.2-35.9 374.8-37.1 410.7-0.4 12.8 7.9 24 20.3 27.3 10.6 2.8 29 7.1 56.2 11.4 30 4.7 56.5 7.2 73.5 8.4 12.9 1 24.8-7.4 28.3-19.8 10-35.7 45.6-162.4 80.8-295.5 23.6-89.3 39.9-154.4 49.7-194.2 9.6 39.9 25.6 105.2 48.8 194.2 34.5 132.8 69.5 260 79.5 295.7 3.3 11.8 14.2 20 26.4 20h1.5c13.3-0.8 35.4-2.6 65.2-7.2 30.3-4.7 53.4-9.8 67.4-13.2 12.5-3.1 21.2-14.6 20.7-27.4-1.2-35.8-7.4-171-37-410.3C754.5 261.6 738 181 733 159.8V88.5c0-7.6-2.9-14.6-8-19.1-4.1-3.7-9.3-5.5-14.7-4.9-20.5 2.2-81.9 7.2-207.8 7.2-117.1 0-168.4-4.3-188.5-6.8-5.4-0.7-10.6 1-14.9 4.7-5.2 4.6-8.1 11.6-8.1 19.2l0.5 71.2z" fill="#1D88F2" /><path d="M511.4 114.8h52.7v19.8h-52.7z" fill="#4531AD" /><path d="M510.5 107.1c-9.4 0-17 7.6-17 17s7.6 17 17 17 17-7.6 17-17c0.1-9.4-7.6-17-17-17z" fill="#FFFFFF" /><path d="M632.3 277.6c-10.2-15.9-19.5-67.2-22.2-85.6l-22.4 3.3c1.1 7.3 10.9 71.6 25.5 94.5 10.5 16.5 31.2 27.7 61.5 33.4 18.7 3.5 35.1 3.8 39.5 3.8h1.1l-0.3-22.7c-18.2 0.2-68.2-4.1-82.7-26.7z" fill="#4531AD" /><path d="M351.576 246.614l0.91-16.976 56.621 3.039-0.91 16.976z" fill="#FFFFFF" /><path d="M413.2 209.9l-65.4-3.6c-8.1-0.4-15.1 5.5-16.1 13.5l-7.9 66.5 22.5 2.7 7.1-59.7 55.2 3c-6.6 29.6-12 41-14.6 45.2-14.5 22.7-64.5 27-82.6 26.7l-0.4 22.7h1.1c4.3 0 20.8-0.2 39.5-3.8 30.3-5.7 51-17 61.5-33.4 14.6-22.9 24.4-87.2 25.5-94.5l-22.4-3.3c0 0.2-1.1 7.5-3 18z" fill="#4531AD" /><path d="M784 500.4c-29.6-238.9-46.1-319.5-51.1-340.7V88.5c0-7.6-2.9-14.6-8-19.1-4.1-3.7-9.3-5.5-14.7-4.9-20.5 2.2-81.9 7.2-207.8 7.2-117.1 0-168.4-4.3-188.5-6.8-5.4-0.7-10.6 1-14.9 4.7-5.2 4.6-8.1 11.6-8.1 19.2v39.6h22.7V88.9c0-0.4 0-0.8 0.1-1.2 22.3 2.6 75.1 6.7 188.7 6.7 122.2 0 184.5-4.8 207.6-7.1 0.1 0.3 0.1 0.7 0.1 1.2v57.8c-9 1-25.4 2.5-51.2 4v-45.2h-22.7v46.3c-4.9 0.2-10 0.4-15.3 0.6v-43.2h-22.7v43.9c-26.5 0.7-58.1 1.2-95.2 1.2-29.8 0-55.4-0.3-77.3-0.8v-44.3H403v43.7c-5.4-0.2-10.5-0.4-15.4-0.6V105h-22.7v46c-44.6-2.4-59-5.5-59.2-5.5-5.9-1.3-11.8 2.1-13.4 7.9-0.7 2.4-17.5 62.9-52.7 347-29.6 239.2-35.9 374.8-37.1 410.7-0.4 12.8 7.9 24 20.3 27.3 10.6 2.8 29 7.1 56.2 11.4 30 4.7 56.5 7.2 73.5 8.4 12.9 1 24.8-7.4 28.3-19.8 10-35.7 45.6-162.4 80.8-295.5 23.6-89.3 39.9-154.4 49.7-194.2 9.6 39.9 25.6 105.2 48.8 194.2 34.5 132.8 69.5 260 79.5 295.7 3.3 11.8 14.2 20 26.4 20h1.5c13.3-0.8 35.4-2.6 65.2-7.2 30.3-4.7 53.4-9.8 67.4-13.2 12.5-3.1 21.2-14.6 20.7-27.4-0.9-35.9-7.2-171.1-36.8-410.4zM521.6 176.6c7.4 0 14.5-0.1 21.5-0.1v99.1c0 8.7-3.7 17.1-10 23L521.6 309V176.6z m273.3 739.5c-13.6 3.4-35.9 8.3-65.4 12.8-28.9 4.4-50.2 6.2-63 7-2.2 0.1-4.2-1.3-4.8-3.4-9.9-35.8-44.9-162.7-79.3-295.4C541.7 480.4 523 397.8 522.9 397c-1.2-5.2-5.7-8.8-11-8.9-5.3 0-9.9 3.6-11 8.8-0.2 0.8-19 82.7-60.7 240.1-35.2 133-70.6 259.6-80.7 295.2-0.6 2.1-2.6 3.6-4.8 3.4-13.5-1-40.9-3.4-71.7-8.2-26.1-4.1-43.7-8.2-53.8-10.9-2.1-0.6-3.6-2.5-3.5-4.7 1.2-35.6 7.4-170.4 36.9-408.7 27.6-222.6 44-307.8 49.7-333.9 20.3 2.6 72.2 7.2 186.9 7.4v188.5h22.7v-25.3l26.8-24.8c11-10.2 17.3-24.6 17.3-39.6v-99.3c83-1.3 127.5-5.1 146-7.2 5.7 25.6 22.1 110.3 49.8 334.2 29.5 238.4 35.7 372.8 36.9 408.3-0.2 2.2-1.7 4.2-3.8 4.7z" fill="#4531AD" /></svg>