<?xml version="1.0" standalone="no"?><!DOCTYPE svg PUBLIC "-//W3C//DTD SVG 1.1//EN" "http://www.w3.org/Graphics/SVG/1.1/DTD/svg11.dtd"><svg class="icon" width="200px" height="200.00px" viewBox="0 0 1024 1024" version="1.1" xmlns="http://www.w3.org/2000/svg"><path d="M915.04 241.92L819.18 130.5c-34.57-40.18-84.79-63.23-137.8-63.23H336.07c-53 0-103.23 23.04-137.8 63.23l-89.96 104.56c-62.96 73.19-57.71 182.88 11.96 249.72l157.66 151.25-58.22 62.87 41.37 40.65 59.22-63.51 14.51 13.53-59.58 63.89 29.93 29.42 60.33-64.69L380 731.72l-60.68 65.07 29.93 29.42 61.43-65.88 14.51 13.53-61.79 66.26 29.93 29.42 62.54-67.07L470.4 816l-62.89 67.45 29.93 29.42 63.65-68.25 14.51 13.53-64 68.63 24.9 24.47L910.43 484.2c63.05-67.88 65.04-172.04 4.61-242.28z" fill="#FA464D" /><path d="M355.05 641.28l212.94 205.18 16.05-16.02-213.25-205.49zM418.13 572.88l-15.74 16.33 214.92 207.08L632 778.95z" fill="#FFFFFF" /><path d="M683.84 197.44c7.72-8.33 11.07-19.97 8.97-31.13l-3.59-19.04 22.29-4.2 3.59 19.04c3.43 18.19-2.04 37.16-14.61 50.74L235.8 714.87l-16.36-15.98 464.4-501.45zM308.95 150.05l-22.01-5.48-3.48 13.99c-5.07 20.36 1.19 42.02 16.34 56.54l170.92 163.82 15.69-16.37-170.92-163.82c-9.29-8.91-13.13-22.2-10.02-34.69l3.48-13.99z" fill="#A8104D" /><path d="M915.04 241.92L819.18 130.5c-34.57-40.18-84.79-63.23-137.8-63.23H336.07c-53 0-103.23 23.04-137.8 63.23l-89.96 104.56c-62.96 73.19-57.71 182.88 11.96 249.72l157.66 151.25 15.41-16.64-157.36-150.97C75 409.92 70.4 313.91 125.51 249.85l89.96-104.56c30.25-35.17 74.21-55.34 120.61-55.34h345.31c46.39 0 90.35 20.17 120.61 55.34l95.86 111.43c52.89 61.48 51.15 152.63-4.05 212.04L554.74 833.7l16.01 16.09L910.41 484.2c63.07-67.88 65.06-172.04 4.63-242.28z" fill="#A8104D" /></svg>