<?xml version="1.0" standalone="no"?><!DOCTYPE svg PUBLIC "-//W3C//DTD SVG 1.1//EN" "http://www.w3.org/Graphics/SVG/1.1/DTD/svg11.dtd"><svg class="icon" width="200px" height="200.00px" viewBox="0 0 1024 1024" version="1.1" xmlns="http://www.w3.org/2000/svg"><path d="M943.05 551.88c-3.63-11.85-7.71-23.34-11.66-34.46-13.59-38.24-27.65-77.78-27.65-143.38l-0.17-137.83 32.96-99.16c1.1-3.31 0.62-6.95-1.32-9.85s-5.1-4.76-8.58-5.03l-44.6-3.41a11.34 11.34 0 0 0-11.94 8.85l-15.23 93.9H830.8c-20.6 0-37.29 16.7-37.29 37.29v392.61c0 4.08-3.07 7.51-7.13 7.95-15.13 1.64-38.41 3.6-67.79 4.33-27.93 0.69-51.42-0.01-67.07-0.8-4.73-0.24-8.21-4.51-7.5-9.2l2.23-14.63c9.95-65.17 14.99-131.64 14.99-197.55V258.8c0-20.6-16.7-37.29-37.29-37.29h-69.9c-2.39 0-4.78 0.63-6.75 1.99-3.4 2.34-5.2 6.27-4.88 10.25 0.05 0.6 4.64 60.74-5.73 163.04-5.04 49.74-13.87 82.83-29.52 110.64-16.2 28.79-40.7 52.82-72.44 79.97-74.15 62.51-126.33 81.73-198.97 112.49-48.26 20.44-94.51 37.94-141.62 70.11-31.96 21.83-27.91 75.83-27.55 77.85 0.95 5.42 5.66 9.37 11.16 9.37l14.93 0.01c71.27 0.04 218.72 0.1 269.32-0.89h0.19c56.76-1.28 142.53-3.21 267.42-33.52l0.13-0.03c56.37-14.39 138.06-14.63 203.7-14.83l113.5-0.9c6.52-0.05 11.8-5.29 11.9-11.81l0.58-36.17c0.02-68.46 0.02-153.68-16.37-207.2z" fill="#1D88F2" /><path d="M66.47 874.63c0 13.24 10.37 23.91 23.6 24.3 23.09 0.67 101.97 0.09 174.37 0.09 139.79-0.06 229.62-0.96 305.88-7.13 67.48-5.46 107.42-2.23 149.7 1.19 28.36 2.29 57.69 4.66 96.95 4.66 52.98 0 86.74-1.41 105.74-2.6 20.16-1.26 35.96-18.07 35.96-38.26v-42.86c0-15.41-12.45-27.93-27.86-28-26.39-0.12-65.43-0.27-89.2-0.19l-8.23 0.03c-66.87 0.2-150.07-0.12-209.17 14.94-122.47 29.71-206.75 31.61-262.52 32.87h-0.15c-50.33 0.98-295.21 1.14-295.21 1.14l0.14 39.82z" fill="#FFD24D" /><path d="M743.03 355.5h19.84v279.85h-19.84zM691.11 355.5h19.84v279.85h-19.84z" fill="#DAE4F2" /><path d="M681.98 259.27h129.95v22.68H681.98zM681.98 306.85h129.95v22.68H681.98z" fill="#4531AD" /><path d="M958.96 785.6s-78.84-0.18-117.34-0.05l-8.23 0.03c-66.87 0.2-150.07-1.26-209.17 13.81-122.47 29.71-206.75 33.03-262.52 34.28h-0.15c-50.33 0.98-197.06 0.91-268.26 0.88h-4.41c-0.05-11.95 1.99-33.94 18.61-46.4 43.18-32.38 87.02-48.54 134.33-67.15 61.2-24.07 130.56-51.35 207.62-116.31 71.92-61.54 99.33-101.85 109.84-205.61 7.97-78.69 7.33-132.17 6.43-154.9h58.26c8.07 0 14.62 6.54 14.62 14.62v182.7c0 64.78-4.96 130.09-14.73 194.13l-5.41 35.44c-0.47 3.08 0.35 6.22 2.26 8.68 1.92 2.46 4.76 4.02 7.86 4.32 1.52 0.15 37.9 3.58 90.6 2.28 32.23-0.79 57.37-3.05 72.79-4.79 13.82-1.57 24.25-13.25 24.25-27.16V258.8c0-8.07 6.54-14.62 14.62-14.62h50.25v129.85c0 69.51 14.72 110.93 28.96 150.98 4.05 11.38 7.87 22.13 11.35 33.5 15.39 50.28 15.39 133.61 15.39 200.58h22.68c0-68.47 0-153.69-16.38-207.21-3.63-11.85-7.71-23.34-11.66-34.46-13.59-38.24-27.65-77.78-27.65-143.38V236.55l33.08-99.5c1.1-3.31 0.62-6.95-1.32-9.85s-5.1-4.76-8.58-5.03l-44.6-3.41a11.34 11.34 0 0 0-11.94 8.85l-13.46 60.76 22.14 4.91 11.33-51.16 20.32 1.56-25.87 77.83h-54.03c-20.6 0-37.29 16.7-37.29 37.29v392.61c0 4.08-3.07 7.51-7.13 7.95-15.13 1.64-38.41 3.6-67.79 4.33-27.93 0.69-51.42-0.01-67.07-0.8-4.73-0.24-8.21-4.51-7.5-9.2l2.23-14.63c9.95-65.17 14.99-131.64 14.99-197.55V258.8c0-20.6-16.7-37.29-37.29-37.29h-69.9c-2.39 0-4.78 0.63-6.75 1.99-3.4 2.34-5.2 6.27-4.88 10.25 0.05 0.6 4.64 60.74-5.73 163.04-5.04 49.74-13.87 82.83-29.52 110.64-16.2 28.79-40.7 52.82-72.44 79.97-74.15 62.51-138.76 87.92-201.24 112.49-48.78 19.18-94 35.89-139.63 70.11-35.57 26.67-27.06 75.83-26.7 77.85 0.95 5.42 5.66 9.37 11.16 9.37l14.93 0.01c71.27 0.04 218.15 0.1 268.75-0.89h0.19c56.76-1.28 142.53-4.63 267.42-34.93l0.13-0.03c56.37-14.39 138.06-12.93 203.7-13.12l8.24-0.03c38.68-0.13 70.05 0.47 89.55 0.04 1.71-0.06 2.83 0.81 3.35 1.32s1.4 1.63 1.4 3.34v43.95c0 8.27-6.42 15.12-14.67 15.63-18.67 1.16-51.93 2.55-104.35 2.55-38.35 0-67.21-2.33-95.12-4.59-43.22-3.49-84.05-6.79-153.35-1.19-75.79 6.13-165.07 7.28-304.06 7.34-96.68 0.03-197.92-0.53-197.92-0.5 0.75 12.54 10.82 22.43 23.55 22.8 23.09 0.67 93.53 0.37 174.37 0.37 139.79-0.06 229.62-1.24 305.88-7.41 67.48-5.46 107.42-2.23 149.7 1.19 28.36 2.29 57.69 4.66 96.95 4.66 52.98 0 86.74-1.41 105.74-2.6 20.16-1.26 35.96-18.07 35.96-38.26l0.26-71.27z" fill="#4531AD" /></svg>