<?xml version="1.0" standalone="no"?><!DOCTYPE svg PUBLIC "-//W3C//DTD SVG 1.1//EN" "http://www.w3.org/Graphics/SVG/1.1/DTD/svg11.dtd"><svg class="icon" width="200px" height="200.00px" viewBox="0 0 1024 1024" version="1.1" xmlns="http://www.w3.org/2000/svg"><path d="M214.92 245.91c-10.78 17.11-42.28 76.72-84.95 241.61-43.43 167.81-59.74 295.82-63.7 331.05-1.46 12.94 6.5 25.18 18.91 29.11 21.78 6.89 70.8 20.16 154.42 31.7 91.18 12.58 155.07 13.57 178.3 13.42 11.28-0.08 21.21-6.92 25.29-17.44l63.36-163.17 70.58 164.52c4.12 9.61 13.55 16.1 24 16.54 4.72 0.2 10.67 0.34 17.93 0.34 27.99 0 75.45-2.16 146.96-11.91 88.93-12.13 146.12-26.62 172.3-34.17 13-3.75 21.23-16.22 19.56-29.65-4.8-38.54-23.56-176.28-63.43-330.33-40.85-157.83-75.48-224.61-85.42-241.8v-89.91c0-7.31-3.07-14.35-8.43-19.31a26.414 26.414 0 0 0-19.89-6.95c-35.17 2.65-118.5 7.11-281.41 7.11-156.72 0-227.17-4.18-255.22-6.68a26.42 26.42 0 0 0-20.11 6.8 26.404 26.404 0 0 0-8.56 19.43c-0.02-0.01 1.88 85.94-0.49 89.69z" fill="#4BDBB7" /><path d="M236.66 789.71c-109.11-15.64-155.64-34.6-156.08-34.78l-8.75 20.92c1.95 0.82 49.09 20.18 161.62 36.31 83.09 11.91 142.9 13.44 168.06 13.44 3.48 0 6.29-0.03 8.42-0.06l-0.38-22.67c-17.07 0.27-79.97 0.16-172.89-13.16zM944.39 754.71c-0.58 0.21-59.68 21.02-174.29 37.29-97.48 13.83-147.15 11.96-160.05 11.06l-1.58 22.62c4.07 0.29 11.62 0.66 22.94 0.66 26.14 0 72.32-2.02 141.88-11.89 116.86-16.59 176.25-37.5 178.73-38.38l-7.63-21.36z" fill="#FFFFFF" /><path d="M957.86 817.85c-4.8-38.54-23.56-176.28-63.43-330.33-40.85-157.83-75.48-224.61-85.42-241.8v-89.91c0-7.31-3.07-14.35-8.43-19.31a26.414 26.414 0 0 0-19.89-6.95c-35.17 2.65-118.5 7.11-281.41 7.11-156.72 0-227.17-4.18-255.22-6.68a26.42 26.42 0 0 0-20.11 6.8 26.404 26.404 0 0 0-8.56 19.43v57.34h22.68v-57.34c0-1.4 0.75-2.3 1.19-2.7a3.57 3.57 0 0 1 2.79-0.94c28.42 2.53 99.63 6.77 257.23 6.77 163.65 0 247.62-4.49 283.11-7.17 1.39-0.11 2.33 0.56 2.77 0.97s1.17 1.29 1.17 2.69v81.09c-26.11 2.13-110.64 7.63-286.08 7.63-215.29 0-270.27-8.3-270.77-8.38-3.98-0.64-7.99 0.87-10.56 3.98-1.48 1.8-36.91 46.32-88.95 247.39-43.43 167.81-59.74 295.82-63.7 331.05-1.46 12.94 6.5 25.18 18.91 29.11 21.78 6.89 70.8 20.16 154.42 31.7 91.18 12.58 155.07 13.57 178.3 13.42 11.28-0.08 21.21-6.92 25.29-17.44l63.36-163.17 70.58 164.52c4.12 9.61 13.55 16.1 24 16.54 4.72 0.2 10.67 0.34 17.93 0.34 27.99 0 75.45-2.16 146.96-11.91 88.93-12.13 146.12-26.62 172.3-34.17 12.99-3.79 21.22-16.26 19.54-29.68zM517.34 267.19c15.04-0.03 29.36-0.1 43-0.21v225.17c0 10.92-5.53 20.88-14.8 26.66l-28.2 17.56V267.19z m414.67 558.52c-25.58 7.39-81.56 21.56-169.07 33.49-91.62 12.49-143.03 12.12-160.88 11.38a4.677 4.677 0 0 1-4.1-2.82l-81.52-190.02a11.342 11.342 0 0 0-10.42-6.87h-0.2c-4.61 0.08-8.7 2.94-10.37 7.23l-73.41 189.04c-0.7 1.79-2.38 2.96-4.3 2.97-22.75 0.16-85.32-0.82-175.04-13.21-81.96-11.31-129.58-24.19-150.68-30.86a4.652 4.652 0 0 1-3.21-4.95c3.92-34.86 20.06-161.53 63.12-327.9 26.12-100.95 47.66-160.37 61.13-192.45 9.43-22.46 16.35-35.09 20.14-41.3 20.42 2.22 87.99 7.63 261.47 7.74v372.69h22.68v-76.81l40.19-25.03c15.96-9.94 25.49-27.1 25.49-45.91V266.77c126.43-1.39 187.79-5.73 207.61-7.46 10.32 18.55 43.23 84.68 81.84 233.89C912 645.93 930.6 782.45 935.36 820.65a4.65 4.65 0 0 1-3.35 5.06z" fill="#19A88D" /><path d="M304.35 399.59c-19.24 30.18-88.12 32.59-113.03 30.97l-1.5 22.63c0.47 0.03 5.76 0.37 14.05 0.37 9.98 0 24.29-0.49 39.72-2.58 39.88-5.42 66.75-18.6 79.88-39.19 8.06-12.64 15.96-37.72 23.49-74.55 5.47-26.76 8.71-49.73 8.84-50.69l-22.46-3.15c-3.53 25.2-15.62 95.22-28.99 116.19zM721.19 399.59c-13.36-20.96-25.46-90.99-28.99-116.2l-22.46 3.15c0.13 0.96 3.37 23.93 8.84 50.69 7.53 36.83 15.43 61.92 23.49 74.55 13.12 20.59 40 33.77 79.88 39.19 15.43 2.1 29.74 2.58 39.72 2.58 8.29 0 13.58-0.34 14.05-0.37l-1.5-22.63c-24.89 1.66-93.74-0.7-113.03-30.96zM526.18 192.79h52.92v19.84h-52.92z" fill="#19A88D" /><path d="M503.93 177.43c-13.79 0-25 11.21-25 25s11.21 25 25 25 25-11.21 25-25-11.21-25-25-25z" fill="#FFFFFF" /></svg>