<?xml version="1.0" standalone="no"?><!DOCTYPE svg PUBLIC "-//W3C//DTD SVG 1.1//EN" "http://www.w3.org/Graphics/SVG/1.1/DTD/svg11.dtd"><svg class="icon" width="200px" height="200.00px" viewBox="0 0 1024 1024" version="1.1" xmlns="http://www.w3.org/2000/svg"><path d="M214.4 247.1c-6.6 21.4-43.5 141.3-90.5 322.8-37.6 145.3-52.6 217.5-58.2 247.7-2.7 14.6 6.5 28.5 21 31.7l155 32.4s13.8 14 18.3 19.8c4.5 5.8 10.9 9.5 18.1 10.5 30.2 3.9 100.8 10.6 234 10.6 133 0 202.8-6.6 232.5-10.5 14.9-2 36.4-28 36.4-28l156.7-34.5c14.4-3.3 23.4-17.3 20.6-31.8-6.6-34.3-23-112-58.1-247.7-42.5-164.2-82.2-295.4-90.1-321.5v-119c0-7-3-13.8-8.1-18.6s-12.2-7.2-19.2-6.7c-28.3 2.2-112.7 7.2-283.8 7.2-158.9 0-229.5-4.3-257.5-6.8-7.1-0.6-14.1 1.7-19.4 6.5-5.2 4.8-8.2 11.6-8.2 18.7 0.1-0.1 1.2 115 0.5 117.2z" fill="#9E38E0" /><path d="M499.8 224.8c-225 0-280.5-8.6-282.7-8.9l3.6-23c0.6 0.1 57.2 8.6 279.1 8.6 223 0 303.5-8.6 304.3-8.7l2.5 23.1c-3.3 0.4-82.1 8.9-306.8 8.9z" fill="#FFD24D" /><path d="M643.7 160.9h34v105.9h-34zM349.1 160.9h31.2v105.9h-31.2z" fill="#9E38E0" /><path d="M499.9 272.2c-77.1 0-180.6-1.8-230.6-10.3l3.3-19.6c58.3 9.9 193.6 10.4 269 9.8 109.7-0.9 200.8-4.7 212.9-6.9l3.5 19.5c-15.1 2.7-110.8 6.3-216.2 7.2-12.6 0.2-26.8 0.3-41.9 0.3z" fill="#5A1799" /><path d="M377.6 171.7h22.7v98h-22.7zM327.6 169.4h22.7v97.4h-22.7zM672.7 169.4h22.7v97.4h-22.7zM622.7 171.7h22.7v98h-22.7z" fill="#5A1799" /><path d="M493.5 153c-160.2 0-231.9-4.3-260.4-6.9l1.8-19.8c28.1 2.6 99.2 6.9 258.6 6.9V153z" fill="#FFFFFF" /><path d="M88 821.7c5.6-29.8 20.5-101.5 57.9-246.2 51.6-199.2 90.8-323.8 91.2-325.1l-21.6-6.8c-0.4 1.2-39.9 126.4-91.6 326.2-37.6 145.4-52.6 217.6-58.2 247.8-2.7 14.6 6.5 28.5 21 31.7l146.5 32.4 4.9-22.1-146.6-32.4c-2.4-0.6-4-3-3.5-5.5zM958.3 817.6c-6.6-34.3-23-112-58.1-247.7-42.5-164.2-82.2-295.4-90.1-321.5v-119c0-7-3-13.8-8.1-18.6s-12.2-7.2-19.2-6.7c-28.3 2.2-112.7 7.2-283.8 7.2-158.9 0-229.5-4.3-257.5-6.8-7.1-0.6-14.1 1.7-19.4 6.5-5.2 4.8-8.2 11.6-8.2 18.7v88.7h22.7v-88.7c0-1 0.5-1.6 0.9-2 0.4-0.4 1.1-0.8 2-0.7 28.3 2.6 99.7 6.9 259.5 6.9 165.7 0 250-4.6 285.5-7.3 1-0.1 1.6 0.3 2 0.7s0.8 1 0.8 2v120.9l-0.4 0.1c0.4 1.4 44.1 142.9 91.2 325.2 36.3 140.1 52.5 218.9 57.8 246.3 0.5 2.5-1.1 4.9-3.5 5.4l-148.2 34.5 5.2 22.1 148.2-34.5c14.5-3.2 23.6-17.2 20.7-31.7z" fill="#5A1799" /><path d="M733.6 654.1c-25.2-149.5-50.6-275.6-50.9-276.8l-22.2 4.5c0.2 1.2 25.6 127 50.8 276.1 19.5 115.8 30.6 196.9 34.5 226.4 0.3 2.5-1.5 4.9-4 5.2-29.2 3.9-97.9 10.3-229.6 10.3-132 0-201.4-6.5-231.1-10.4-1.7-0.2-2.7-1.2-3.1-1.8-0.4-0.6-1.1-1.8-0.9-3.5 3.9-29.8 15.1-111.5 34.4-226.3C336.4 510 362 383 362.3 381.7l-22.2-4.5c-0.3 1.3-26 128.7-50.9 276.8-19.4 115.1-30.6 197.2-34.6 227.1-0.9 7.2 1 14.4 5.4 20.2 4.5 5.8 10.9 9.5 18.1 10.5 30.2 3.9 100.8 10.6 234.1 10.6 133 0 202.8-6.6 232.5-10.5 14.9-2 25.5-15.7 23.5-30.7-3.9-29.5-15-111-34.6-227.1z" fill="#5A1799" /><path d="M500.8 392.4h22.7v440.5h-22.7z" fill="#5A1799" /></svg>