<?xml version="1.0" standalone="no"?><!DOCTYPE svg PUBLIC "-//W3C//DTD SVG 1.1//EN" "http://www.w3.org/Graphics/SVG/1.1/DTD/svg11.dtd"><svg class="icon" width="200px" height="200.00px" viewBox="0 0 1024 1024" version="1.1" xmlns="http://www.w3.org/2000/svg"><path d="M871.3 154.9H636.9c-17.3 0-31.3 14.1-31.3 31.3v298.9c0 6.9-2.7 13.5-7.5 18.4l-192 197.1c-28.5 29.3-43.9 67.9-43.2 108.8 0.7 40.9 17.3 79 46.8 107.3 28.6 27.4 65.9 42.4 105.3 42.4h4c41-1 79-18.1 107-47.9L858.6 664c28.4-30.2 44-69.7 44-111.1V186.3c0-17.3-14-31.4-31.3-31.4z" fill="#DAE4F2" /><path d="M627.3 63.3H392.9c-17.3 0-31.3 14.1-31.3 31.3v298.9c0 6.9-2.7 13.5-7.5 18.4L162.1 609c-28.5 29.3-43.9 54.6-43.2 95.5 0.7 40.9 17.3 79 46.8 107.3 28.6 27.4 65.9 42.4 105.3 42.4h4c41-1 79-18.1 107-47.9L614.6 559c28.4-30.2 44-69.7 44-111.1V94.6c0.1-17.2-14-31.3-31.3-31.3z" fill="#DAE4F2" /><path d="M871.3 154.9H636.9c-17.3 0-31.3 14.1-31.3 31.3v298.9c0 6.9-2.7 13.5-7.5 18.4l-192 197.1c-28.5 29.3-43.9 67.9-43.2 108.8 0.7 40.9 17.3 79 46.8 107.3 28.6 27.4 65.9 42.4 105.3 42.4h4c41-1 79-18.1 107-47.9L858.6 664c28.4-30.2 44-69.7 44-111.1V186.3c0-17.3-14-31.4-31.3-31.4z m-29.2 493.6L609.6 895.7c-23.9 25.4-56.2 39.9-91.1 40.8-34.9 0.9-67.9-11.9-93.1-36-25.1-24.1-39.3-56.5-39.9-91.3s12.5-67.7 36.8-92.6l192-197.1c9-9.2 13.9-21.4 13.9-34.2v-299c0-4.8 3.9-8.7 8.7-8.7h234.4c4.8 0 8.7 3.9 8.7 8.7v277.3c-34.7 6.4-66.5 24-90.5 50.4-27.2 29.9-42.1 68.6-42.1 109 0 25.2 5.6 49.3 16.7 71.7l20.3-10c-9.5-19.3-14.3-40-14.3-61.7 0-34.8 12.9-68.1 36.2-93.8 19.7-21.7 45.5-36.5 73.8-42.6v66.2c-0.1 35.7-13.6 69.7-38 95.7z" fill="#A9B9D9" /><path d="M255.9 831.8c-28.2-3.3-53.9-15.5-74.4-35.2-25.1-24.1-39.3-56.5-39.9-91.3s12.5-67.7 36.8-92.6l192-197.1c9-9.2 13.9-21.4 13.9-34.2V95.9c0-4.8 3.9-8.7 8.7-8.7h234.4c4.8 0 8.7 3.9 8.7 8.7v33.6h22.7V95.9c0-17.3-14.1-31.3-31.3-31.3H392.9c-17.3 0-31.3 14.1-31.3 31.3v285.4c0 6.9-2.7 13.5-7.5 18.4l-192 197.1c-28.5 29.3-43.9 67.9-43.2 108.8s17.3 79 46.8 107.3c24.1 23.1 54.4 37.4 87.5 41.3 5.9 0.7 11.8 1 17.7 1 26.2 0 52.4-6.8 75.2-19.6L335 815.9c-23.8 13.4-51.9 19.1-79.1 15.9z" fill="#A9B9D9" /><path d="M590.6 401.4l-12.2-19.1c-47 30-75.1 81.1-75.1 136.8 0 12.8 1.5 25.5 4.4 37.8l22.1-5.3c-2.5-10.6-3.8-21.5-3.8-32.5 0-47.9 24.1-91.9 64.6-117.7z" fill="#A9B9D9" /><path d="M605.6 248.5h297v22.7h-297zM605.6 305.9h297v22.7h-297zM361.6 158.2h219.2v22.7H361.6zM361.6 215.5h219.2v22.7H361.6z" fill="#1D88F2" /><path d="M535.4 781.7c-47.3-42.9-93.2-44.8-95.1-44.9l-0.6 19.8c0.4 0 40.5 1.7 82.4 39.8 42 38.1 52.7 83.1 52.8 83.5l19.4-4.3c-0.6-2.1-12-51.4-58.9-93.9zM291.4 677.7c-47.3-42.9-93.2-44.8-95.1-44.9l-0.6 19.8c0.4 0 40.5 1.7 82.4 39.8 42 38.1 52.7 83.1 52.8 83.5l19.4-4.3c-0.5-2.1-12-51.3-58.9-93.9zM769.5 540.7l-19.8-11.1c15.3-27.3 37.8-50 65.1-65.5 28-15.9 59.7-23.5 91.9-22.1l-1 22.7c-27.9-1.2-55.5 5.4-79.7 19.2-23.6 13.4-43.2 33-56.5 56.8z" fill="#FFFFFF" /></svg>